<svg height='300px' width='300px'  fill="#fff" xmlns="http://www.w3.org/2000/svg" xmlns:xlink="http://www.w3.org/1999/xlink" version="1.1" x="0px" y="0px" viewBox="-55 147 500 500" style="enable-background:new -55 147 500 500;" xml:space="preserve"><g><polygon points="195.3,297.2 70.8,368.3 194.7,440.2 319.2,369.2  "></polygon><polygon points="52.7,542.4 176.9,614.5 176.9,471.6 52.7,399.4  "></polygon><polygon points="213.1,614.5 337.3,543.6 337.3,400.5 213.1,471.4  "></polygon><polygon points="219.4,278.3 219.4,223.5 195,179.5 170.6,223.5 170.6,278.5 195.4,264.4  "></polygon><polygon points="18.6,537.1 -29,564.6 -55,607.7 -4.6,606.8 43.2,579.2 18.5,564.9  "></polygon><polygon points="419,564.6 371.4,537.1 371.5,564.9 346.8,579.2 394.6,606.8 445,607.7  "></polygon></g></svg>